<svg width="30" height="50" viewBox="0 0 30 50" fill="none" xmlns="http://www.w3.org/2000/svg">
<path d="M10.9021 7.07477C10.3888 7.83041 9.8077 8.53655 9.16671 9.18015C7.88472 10.4647 6.27182 11.4262 4.54166 11.7936C6.20667 11.1839 7.58507 10.053 8.6117 8.69028C9.12501 8.0076 9.56798 7.27541 9.94319 6.51455C10.3106 5.76152 10.6389 4.94073 10.8448 4.18249L10.8526 4.15382C10.8604 4.12255 10.8734 4.09129 10.8864 4.05741C11.048 3.67959 11.4857 3.50501 11.861 3.66917C12.2388 3.83072 12.4108 4.26847 12.2492 4.64369C11.8662 5.54264 11.4154 6.30871 10.9021 7.07477Z" fill="url(#paint0_radial_163_11144)"/>
<path d="M7.67368 7.93232C7.07438 8.44043 6.43078 8.89381 5.72204 9.19346C5.02893 9.52438 4.29153 9.71981 3.55934 9.88136C4.25766 9.60255 4.93774 9.29508 5.53964 8.87036C6.15979 8.47951 6.68092 7.95838 7.13952 7.41901C7.59551 6.87182 7.93685 6.24646 8.19221 5.60286C8.44235 4.97229 8.6039 4.23749 8.61433 3.65643V3.61474C8.61433 3.57305 8.61954 3.53396 8.62735 3.49227C8.70552 3.08839 9.09637 2.82522 9.50025 2.90339C9.90413 2.98156 10.1673 3.37241 10.0891 3.77629C9.91455 4.67785 9.59926 5.38659 9.18757 6.09533C8.77588 6.78062 8.27298 7.4164 7.67368 7.93232Z" fill="url(#paint1_radial_163_11144)"/>
<path d="M7.39229 5.49798C7.08743 6.0139 6.69658 6.48292 6.23538 6.85814C5.31818 7.63723 4.11958 7.88737 3.04604 7.82223C4.11958 7.63983 5.12015 7.14215 5.71164 6.3344C6.0165 5.94355 6.23798 5.49798 6.3865 5.03157C6.52982 4.57818 6.61841 4.04663 6.61059 3.64014C6.61059 3.58282 6.6158 3.51247 6.62883 3.45254C6.72003 3.05126 7.1187 2.79851 7.51997 2.88971C7.92124 2.98091 8.17399 3.37958 8.0854 3.78085C7.93166 4.4505 7.69715 4.96643 7.39229 5.49798Z" fill="url(#paint2_radial_163_11144)"/>
<path d="M1.22466 3.66886C1.45917 3.50471 1.7953 3.35879 2.14967 3.46823C2.50143 3.57767 2.71249 3.85647 2.87665 4.10922C2.99391 4.30204 3.0851 4.47923 3.17369 4.61993C3.22841 4.53655 3.28574 4.44275 3.36652 4.33852C3.58018 4.07014 3.9606 3.7783 4.48434 3.8669C4.61723 3.88774 4.73188 3.9633 4.8335 4.04929C4.81787 3.85387 4.78921 3.66626 4.7423 3.52555C4.71364 3.44478 4.70061 3.35358 4.70061 3.26238C4.71103 2.84547 5.05759 2.51716 5.4745 2.52759C5.8914 2.53801 6.21971 2.88456 6.20929 3.30147V3.34316C6.19626 3.88513 6.08683 4.29944 5.92006 4.74761C5.74809 5.18015 5.49013 5.58663 5.14879 5.90192C4.46089 6.55333 3.5437 6.68622 2.7646 6.61326C3.53067 6.44911 4.23159 6.05044 4.5547 5.46156C4.34103 5.37557 4.19251 5.17233 4.2342 4.93782C4.26547 4.76585 4.20293 4.65902 4.27328 4.70852C4.23681 4.67986 4.05701 4.68768 3.9111 4.83881L3.63229 5.13846C3.57236 5.19578 3.50462 5.28959 3.3118 5.35994C3.04602 5.43811 2.86362 5.26092 2.79848 5.18015C2.57439 4.84662 2.53791 4.57564 2.43369 4.34894C2.2539 3.85647 1.84741 3.60112 1.33931 3.88774C1.21684 3.93985 1.12304 4.03105 0.940643 4.08056C0.763458 4.11964 0.599302 4.04147 0.487259 3.94767C0.260566 3.75225 0.117254 3.5021 -9.53674e-07 3.24935C0.291833 3.70274 0.812964 4.22387 1.22466 3.66886Z" fill="url(#paint3_radial_163_11144)"/>
<path d="M3.56194 14.5579C4.23681 13.8257 5.17485 13.3879 6.12331 13.1795C7.07438 12.4812 8.01502 11.762 8.86186 10.9569C9.79729 10.1022 10.6546 9.18502 11.4336 8.22092C12.145 7.21774 12.7651 6.16245 13.1195 5.07328C13.3149 4.5313 13.3905 3.98411 13.4192 3.46038C13.4244 2.98875 13.2524 2.35036 13.156 2.22008L13.1273 2.18099C13.0935 2.1367 13.0648 2.08719 13.0361 2.03508C12.7261 1.45402 12.9449 0.732246 13.5234 0.422172C14.1045 0.112098 14.8262 0.330974 15.1363 0.909431C15.6861 1.93867 15.6783 2.65783 15.6939 3.49425C15.6574 4.28376 15.5376 5.05504 15.2926 5.75857C15.019 6.60802 14.6334 7.37669 14.2061 8.11409C16.1004 8.82022 18.0572 9.70094 19.7483 11.2018C20.5769 10.2716 21.6452 9.57847 22.9481 9.31009C23.9669 9.11206 25.0587 9.26579 25.9524 9.68009C26.8644 10.0892 27.5106 10.725 28.0838 11.3529C28.605 12.0174 29.0167 12.6662 29.358 13.401C29.5143 13.797 29.6811 14.1827 29.8036 14.5892C29.8765 15.0217 29.9703 15.449 29.9964 15.879C30.0615 17.6717 29.2355 19.2168 28.3262 20.3659C26.4579 22.698 24.092 24.1676 22.1716 26.0098C21.2544 26.9087 20.418 28.0266 20.6056 29.2955C20.8166 30.5515 21.9501 31.5624 23.1435 32.1722C21.8928 31.6953 20.5821 30.8667 20.1261 29.4024C19.7066 27.8885 20.5795 26.4163 21.442 25.3479C23.2373 23.1826 25.3974 21.3978 26.7106 19.2377C27.3621 18.1746 27.7112 17.0593 27.5419 16.0874C27.4897 15.8425 27.3907 15.6054 27.336 15.3683C27.2266 15.1337 27.0807 14.9071 26.966 14.6751C26.669 14.1957 26.2807 13.7293 25.9081 13.3567C25.103 12.6297 24.3317 12.4291 23.722 12.6766C23.0888 12.8798 22.4374 13.6277 22.2914 14.3182C22.2706 14.425 22.2341 14.537 22.1924 14.6439C22.367 15.1311 22.5103 15.6288 22.5781 16.1291C22.7839 17.5805 22.5885 18.9615 22.2602 20.2096C20.8245 25.1682 17.9296 28.8943 16.1812 33.0946C15.7434 34.1316 15.3708 35.1843 15.1545 36.2474C14.9122 37.2897 14.9643 38.3919 15.0112 39.528C15.1702 41.7193 15.8424 43.9967 17.7081 45.1223C19.5633 46.274 21.997 46.1463 24.3134 46.0108C25.5485 45.9587 26.7602 46.4147 27.68 47.1756C28.5945 47.9442 29.2955 48.9292 29.7645 50.0001C28.7196 47.9599 26.6377 46.1985 24.3447 46.5033C22.083 46.7743 19.5425 47.173 17.2208 45.9796C16.0822 45.3907 15.178 44.3797 14.5995 43.2567C14.0028 42.1258 13.7475 40.9011 13.5416 39.6921C13.4035 38.5039 13.2576 37.248 13.4504 35.9764C13.612 34.7283 13.9455 33.5401 14.339 32.391C15.905 27.8442 18.5289 23.7324 19.3783 19.5503C19.7926 17.4658 19.4669 15.6757 18.1901 14.4563C16.9368 13.1821 14.8992 12.3743 12.8355 11.8011L12.786 11.7881C12.7365 11.775 12.687 11.7568 12.6375 11.7386C12.3743 11.6422 12.1476 11.491 11.9574 11.3086C11.5379 11.8115 11.1053 12.3014 10.6546 12.7678C10.42 13.0101 10.1725 13.2316 9.93539 13.4661C10.8917 13.797 11.8662 14.24 12.7287 14.9722C13.5963 15.7096 14.3129 16.7076 14.7116 17.8019C15.0998 18.9432 15.2822 19.936 15.1233 21.3144C15.1128 21.4108 15.092 21.5176 15.0659 21.614C14.7767 22.6667 13.6849 23.2843 12.6323 22.995C11.5796 22.7058 10.9594 21.614 11.2513 20.5613C11.3424 20.233 11.3424 19.4696 11.2043 18.9719C11.0662 18.4273 10.7979 17.9479 10.3992 17.5179C9.63835 16.6971 8.02023 16.0119 6.93888 16.0145C5.7976 15.9754 4.84653 16.7571 4.54688 17.9869C4.26287 19.2142 4.72668 20.6916 5.66211 21.872C6.61578 23.1175 7.94988 23.8914 9.48461 24.7955C11.0506 25.6971 12.5124 26.9817 13.2811 28.704C13.7058 29.5378 13.8283 30.5124 13.7657 31.44C13.6589 32.3754 13.1873 33.2952 12.4108 33.8372C11.6395 34.3661 10.6207 34.5016 9.78687 34.189C9.34651 34.1108 8.98172 33.832 8.58306 33.6652L7.54079 32.8913L8.64298 33.5558C9.04947 33.6809 9.42208 33.9154 9.84419 33.9466C10.6598 34.1655 11.5275 33.9336 12.1137 33.4411C12.7052 32.9356 13.0153 32.1618 13.0309 31.3827C12.997 30.6036 12.8355 29.8167 12.4004 29.1444C11.6213 27.7608 10.2611 26.7654 8.79411 26.101C7.30107 25.3975 5.48492 24.5923 4.1847 23.1722C2.86623 21.7964 1.86045 19.7927 2.12101 17.5831C2.22524 16.4939 2.74897 15.4047 3.56194 14.5579Z" fill="url(#paint4_radial_163_11144)"/>
<path d="M18.581 17.0596C18.5523 16.7339 18.2865 16.3326 17.966 16.0668C17.6377 15.788 17.2417 15.5717 16.8222 15.4154C15.9779 15.0975 15.0581 14.9724 14.1435 14.9073C15.0607 14.8917 15.9936 14.9307 16.9003 15.1809C17.3537 15.306 17.7967 15.4936 18.198 15.7776C18.5914 16.072 18.9562 16.4342 19.0761 17.0257C19.0787 17.0335 19.0787 17.0439 19.0813 17.0518C19.0943 17.1872 18.9927 17.3071 18.8572 17.3201C18.7217 17.3332 18.6018 17.2315 18.5888 17.096L18.581 17.0596Z" fill="url(#paint5_radial_163_11144)"/>
<path d="M16.8352 16.249C17.2782 16.3167 17.6169 16.8014 17.7654 17.1192C17.9582 17.4293 18.2709 17.6977 18.5575 17.7967L18.5836 17.8045C18.5914 17.8071 18.6018 17.8124 18.6097 17.815C18.7321 17.8749 18.7842 18.0208 18.7269 18.1459C18.667 18.2683 18.5211 18.3205 18.396 18.2631C17.9973 18.0729 17.7472 17.7785 17.5491 17.4528C17.3902 17.7029 16.9759 17.7576 16.5929 17.5518C16.1968 17.3407 15.9936 16.9473 16.1395 16.6711C16.2333 16.4913 16.4626 16.447 16.7127 16.4678C15.9857 16.1942 15.191 16.0144 14.425 15.8008C15.2275 15.9415 16.0274 16.0301 16.8352 16.249Z" fill="url(#paint6_radial_163_11144)"/>
<path d="M16.4261 17.6353C16.7492 17.8646 17.187 17.9272 17.6768 18.0496C17.2391 18.3284 16.6606 18.3232 16.1655 18.0548C15.9362 17.8959 15.733 17.6718 15.6548 17.4112C15.5558 17.1559 15.5767 16.8849 15.6366 16.6426C15.8867 17.0908 16.0691 17.4581 16.4261 17.6353Z" fill="url(#paint7_radial_163_11144)"/>
<defs>
<radialGradient id="paint0_radial_163_11144" cx="0" cy="0" r="1" gradientUnits="userSpaceOnUse" gradientTransform="translate(45.5063 -0.685418) rotate(180) scale(97.1698 97.1698)">
<stop offset="0.1231" stop-color="#EAC356"/>
<stop offset="0.3593" stop-color="#D40B01"/>
<stop offset="0.7412" stop-color="#710702"/>
</radialGradient>
<radialGradient id="paint1_radial_163_11144" cx="0" cy="0" r="1" gradientUnits="userSpaceOnUse" gradientTransform="translate(45.5066 -0.685123) rotate(180) scale(97.1704 97.1704)">
<stop offset="0.1231" stop-color="#EAC356"/>
<stop offset="0.3593" stop-color="#D40B01"/>
<stop offset="0.7412" stop-color="#710702"/>
</radialGradient>
<radialGradient id="paint2_radial_163_11144" cx="0" cy="0" r="1" gradientUnits="userSpaceOnUse" gradientTransform="translate(45.5069 -0.685777) rotate(180) scale(97.1709 97.1709)">
<stop offset="0.1231" stop-color="#EAC356"/>
<stop offset="0.3593" stop-color="#D40B01"/>
<stop offset="0.7412" stop-color="#710702"/>
</radialGradient>
<radialGradient id="paint3_radial_163_11144" cx="0" cy="0" r="1" gradientUnits="userSpaceOnUse" gradientTransform="translate(45.5066 -0.685721) rotate(180) scale(97.1701 97.1701)">
<stop offset="0.1231" stop-color="#EAC356"/>
<stop offset="0.3593" stop-color="#D40B01"/>
<stop offset="0.7412" stop-color="#710702"/>
</radialGradient>
<radialGradient id="paint4_radial_163_11144" cx="0" cy="0" r="1" gradientUnits="userSpaceOnUse" gradientTransform="translate(45.5061 -0.685757) rotate(180) scale(97.1688 97.1688)">
<stop offset="0.1231" stop-color="#EAC356"/>
<stop offset="0.3593" stop-color="#D40B01"/>
<stop offset="0.7412" stop-color="#710702"/>
</radialGradient>
<radialGradient id="paint5_radial_163_11144" cx="0" cy="0" r="1" gradientUnits="userSpaceOnUse" gradientTransform="translate(45.5056 -0.685268) rotate(180) scale(97.1672 97.1673)">
<stop offset="0.1231" stop-color="#EAC356"/>
<stop offset="0.3593" stop-color="#D40B01"/>
<stop offset="0.7412" stop-color="#710702"/>
</radialGradient>
<radialGradient id="paint6_radial_163_11144" cx="0" cy="0" r="1" gradientUnits="userSpaceOnUse" gradientTransform="translate(45.5056 -0.686023) rotate(180) scale(97.168 97.168)">
<stop offset="0.1231" stop-color="#EAC356"/>
<stop offset="0.3593" stop-color="#D40B01"/>
<stop offset="0.7412" stop-color="#710702"/>
</radialGradient>
<radialGradient id="paint7_radial_163_11144" cx="0" cy="0" r="1" gradientUnits="userSpaceOnUse" gradientTransform="translate(45.505 -0.686119) rotate(180) scale(97.1673 97.1672)">
<stop offset="0.1231" stop-color="#EAC356"/>
<stop offset="0.3593" stop-color="#D40B01"/>
<stop offset="0.7412" stop-color="#710702"/>
</radialGradient>
</defs>
</svg>
